# xmcd CD database file
#
# Track frame offsets:
#	182
#	11407
#	22550
#	35047
#	48382
#	59207
#	69690
#	83602
#	94322
#	113842
#	125412
#	140297
#	151272
#	163100
#	174310
#	205325
#	215937
#	229470
#	248382
#	265820
#	291095
#	305625
#
# Disc length: 4239 seconds
#
# Revision: 5
# Processed by: cddbd v1.5.1PL2 Copyright (c) Steve Scherf et al.
# Submitted via: CDex 1.51
#
DISCID=3a108d16
DTITLE=The Yardbirds - The Very Best of the Yardbirds
DYEAR=1993
DGENRE=Rock
TTITLE0=For Your Love
TTITLE1=Heart Full of Soul
TTITLE2=Good Morning Little Schoolgirl
TTITLE3=Still I'm Sad
TTITLE4=Evil Hearted You
TTITLE5=A Certain Girl
TTITLE6=Jeff's Blues
TTITLE7=I Wish You Would
TTITLE8=New York City
TTITLE9=I'm not Talking
TTITLE10=You're a Better Man Than I
TTITLE11=Shapes of Things
TTITLE12=I'm a Man
TTITLE13=Boom Boom
TTITLE14=Smokestack Lightning (Live)
TTITLE15=Let it Rock (Live)
TTITLE16=You Can't Judge a Book by its Cover
TTITLE17=Who Do You Love (Live)
TTITLE18=Too Much Monkey Business (Live)
TTITLE19=Respectable (Live)
TTITLE20=Pretty Girl (Live)
TTITLE21=Stroll On
EXTD=YEAR: 1993
EXTT0=
EXTT1=
EXTT2=
EXTT3=
EXTT4=
EXTT5=
EXTT6=
EXTT7=
EXTT8=
EXTT9=
EXTT10=
EXTT11=
EXTT12=
EXTT13=
EXTT14=
EXTT15=
EXTT16=
EXTT17=
EXTT18=
EXTT19=
EXTT20=
EXTT21=
PLAYORDER=
